<?xml version="1.0" encoding="UTF-8" standalone="no"?>
<!-- Uploaded to: SVG Repo, www.svgrepo.com, Generator: SVG Repo Mixer Tools -->

<svg
   width="800px"
   height="800px"
   viewBox="0 0 24 24"
   fill="none"
   version="1.1"
   id="svg394"
   sodipodi:docname="dollar.svg"
   inkscape:version="1.2.2 (b0a8486541, 2022-12-01)"
   xmlns:inkscape="http://www.inkscape.org/namespaces/inkscape"
   xmlns:sodipodi="http://sodipodi.sourceforge.net/DTD/sodipodi-0.dtd"
   xmlns="http://www.w3.org/2000/svg"
   xmlns:svg="http://www.w3.org/2000/svg">
  <defs
     id="defs398" />
  <sodipodi:namedview
     id="namedview396"
     pagecolor="#ffffff"
     bordercolor="#000000"
     borderopacity="0.25"
     inkscape:showpageshadow="2"
     inkscape:pageopacity="0.0"
     inkscape:pagecheckerboard="0"
     inkscape:deskcolor="#d1d1d1"
     showgrid="false"
     inkscape:zoom="0.61375"
     inkscape:cx="401.62933"
     inkscape:cy="400.81466"
     inkscape:window-width="1280"
     inkscape:window-height="662"
     inkscape:window-x="0"
     inkscape:window-y="0"
     inkscape:window-maximized="1"
     inkscape:current-layer="svg394" />
  <path
     style="fill:#ff0000;stroke-width:0.0489567"
     d="M 11.308603,21.55874 C 9.4013548,21.429144 7.5458005,20.734396 5.9909389,19.567725 5.5076029,19.205061 4.6358182,18.36383 4.2559381,17.893533 1.5356972,14.525837 1.2827036,9.7959799 3.6305017,6.2006499 4.0856548,5.5036469 4.4634595,5.0486182 5.083975,4.4500864 6.3760081,3.2038279 7.8063565,2.3999677 9.5218075,1.9560113 10.367225,1.7372185 11.034324,1.6563119 11.99292,1.6563119 c 0.958597,0 1.625695,0.080907 2.471113,0.2996994 1.715057,0.4438545 3.160678,1.2561308 4.438462,2.4939173 1.204178,1.1664843 2.027613,2.4659803 2.540361,4.0090503 0.69523,2.0922291 0.695304,4.2116141 2.1e-4,6.3054991 -0.723982,2.181011 -2.246387,4.106769 -4.208746,5.323863 -1.75254,1.086959 -3.86272,1.610578 -5.925703,1.470399 z m 1.344195,-1.958437 c 3.604698,-0.314341 6.507657,-2.912758 7.219554,-6.462167 0.148424,-0.740021 0.159182,-2.203346 0.02164,-2.943923 -0.288319,-1.5524371 -1.013461,-2.9747161 -2.09327,-4.1056931 -3.177706,-3.3282885 -8.4379009,-3.3282885 -11.6156074,0 -1.0798086,1.130977 -1.8049515,2.553256 -2.0932701,4.1056931 -0.1272936,0.685407 -0.1272936,2.149624 0,2.835031 0.4649679,2.503596 2.0567904,4.624717 4.3259274,5.764346 0.8445189,0.424143 1.8960971,0.72192 2.8419491,0.804759 0.667627,0.05847 0.743743,0.05858 1.393075,0.002 z"
     id="path885" />
  <path
     style="fill:#ff0000;stroke-width:0.0489567"
     d="m 11.819809,17.816141 c -0.431641,-0.153875 -0.663831,-0.533919 -0.665514,-1.089296 l -0.0011,-0.354379 h -0.430941 c -0.9051108,0 -1.6184458,-0.259768 -2.2006328,-0.801383 -0.610033,-0.56752 -0.39362,-1.479817 0.402705,-1.697615 0.274337,-0.07503 0.571693,0.0091 0.883995,0.250002 0.134926,0.104094 0.3071858,0.212784 0.3827998,0.241533 0.08759,0.0333 0.726141,0.05224 1.759554,0.05219 1.44674,-6e-5 1.64046,-0.0093 1.792178,-0.08554 0.462484,-0.23236 0.536027,-0.898171 0.140037,-1.26782 -0.189896,-0.177265 -0.481991,-0.208268 -1.974008,-0.209524 -1.562806,-0.0013 -1.735054,-0.024 -2.2835188,-0.300747 -0.399189,-0.201424 -0.950934,-0.751275 -1.15026,-1.146312 -0.54929,-1.088614 -0.354825,-2.3185701 0.501812,-3.1738751 0.516186,-0.515384 1.1940928,-0.803398 1.8952208,-0.805201 l 0.281059,-7.23e-4 0.0011,-0.3543784 c 0.0013,-0.4241508 0.101752,-0.6783435 0.356516,-0.9020298 0.162908,-0.1430349 0.439611,-0.258321 0.620007,-0.258321 0.180397,0 0.4571,0.1152861 0.620008,0.258321 0.254765,0.2236863 0.355231,0.477879 0.356516,0.9020298 l 0.0011,0.3543784 h 0.21214 c 0.759864,0 1.919806,0.605048 2.176498,1.135302 0.412781,0.852692 -0.618994,1.7795071 -1.373243,1.233548 -0.088,-0.0637 -0.25898,-0.177329 -0.379957,-0.252515 l -0.219959,-0.136701 -1.417516,-0.01327 c -1.276233,-0.01195 -1.434469,-0.0046 -1.58762,0.07332 -0.46275,0.235553 -0.5360018,0.8993191 -0.140038,1.2689441 0.190466,0.177797 0.481314,0.208269 1.999846,0.209525 1.582073,0.0013 1.69404,0.01644 2.269564,0.306776 0.386951,0.195205 0.942094,0.751276 1.138377,1.140282 0.549339,1.088713 0.354692,2.31959 -0.501812,3.173281 -0.514918,0.513227 -1.198825,0.804005 -1.895221,0.805795 l -0.281059,7.23e-4 -0.0011,0.354379 c -0.0013,0.424151 -0.101751,0.678343 -0.356516,0.90203 -0.172514,0.151469 -0.445883,0.260252 -0.644447,0.256448 -0.05377,-0.001 -0.182725,-0.03216 -0.28657,-0.06918 z"
     id="path887" />
</svg>
