<?xml version="1.0" encoding="UTF-8" standalone="no"?>
<!-- Created with Inkscape (http://www.inkscape.org/) -->

<svg
   width="200mm"
   height="150mm"
   viewBox="0 0 200 150"
   version="1.1"
   id="svg33875"
   inkscape:version="1.2.2 (b0a8486541, 2022-12-01)"
   sodipodi:docname="logo.svg"
   xmlns:inkscape="http://www.inkscape.org/namespaces/inkscape"
   xmlns:sodipodi="http://sodipodi.sourceforge.net/DTD/sodipodi-0.dtd"
   xmlns="http://www.w3.org/2000/svg"
   xmlns:svg="http://www.w3.org/2000/svg">
  <sodipodi:namedview
     id="namedview33877"
     pagecolor="#ffffff"
     bordercolor="#000000"
     borderopacity="0.25"
     inkscape:showpageshadow="2"
     inkscape:pageopacity="0.0"
     inkscape:pagecheckerboard="0"
     inkscape:deskcolor="#d1d1d1"
     inkscape:document-units="mm"
     showgrid="false"
     inkscape:zoom="0.33953129"
     inkscape:cx="139.89874"
     inkscape:cy="250.34512"
     inkscape:window-width="1364"
     inkscape:window-height="710"
     inkscape:window-x="54"
     inkscape:window-y="0"
     inkscape:window-maximized="0"
     inkscape:current-layer="layer1" />
  <defs
     id="defs33872" />
  <g
     inkscape:label="Слой 1"
     inkscape:groupmode="layer"
     id="layer1">
    <text
       xml:space="preserve"
       style="font-size:25.4px;font-family:'Liberation Mono';-inkscape-font-specification:'Liberation Mono, Normal';fill:#000000;fill-opacity:1;stroke-width:0.264583"
       x="45.452995"
       y="136.12306"
       id="text37225"><tspan
         sodipodi:role="line"
         id="tspan37223"
         style="stroke-width:0.264583"
         x="45.452995"
         y="136.12306" /></text>
    <text
       xml:space="preserve"
       style="font-size:25.4px;font-family:'Liberation Mono';-inkscape-font-specification:'Liberation Mono, Normal';fill:#000000;fill-opacity:1;stroke-width:0.264583"
       x="119.81926"
       y="186.54799"
       id="text40924"><tspan
         sodipodi:role="line"
         id="tspan40922"
         style="stroke-width:0.264583"
         x="119.81926"
         y="186.54799" /></text>
    <text
       xml:space="preserve"
       style="font-style:normal;font-variant:normal;font-weight:normal;font-stretch:normal;font-size:70.5556px;font-family:'Liberation Mono';-inkscape-font-specification:'Liberation Mono, Normal';font-variant-ligatures:normal;font-variant-caps:normal;font-variant-numeric:normal;font-variant-east-asian:normal;fill:#000000;fill-opacity:1;stroke-width:0.264583"
       x="68.225952"
       y="118.53122"
       id="text40940"><tspan
         sodipodi:role="line"
         id="tspan40938"
         style="stroke-width:0.264583"
         x="68.225952"
         y="118.53122" /></text>
    <text
       xml:space="preserve"
       style="font-style:normal;font-variant:normal;font-weight:normal;font-stretch:normal;font-size:17.6389px;font-family:'Liberation Mono';-inkscape-font-specification:'Liberation Mono, Normal';font-variant-ligatures:normal;font-variant-caps:normal;font-variant-numeric:normal;font-variant-east-asian:normal;fill:#000000;fill-opacity:1;stroke-width:0.264583"
       x="64.059738"
       y="79.60817"
       id="text40944"><tspan
         sodipodi:role="line"
         id="tspan40946"
         x="64.059738"
         y="79.60817">OTC SERVICE</tspan></text>
    <path
       id="path41054"
       style="fill:#ff6600;fill-opacity:1;stroke-width:0.264583"
       d="M 34.999931,59.697131 A 16.142714,14.7459 0 0 0 19.29753,74.704484 16.142714,14.7459 0 0 0 35.583875,89.183187 16.142714,14.7459 0 0 0 51.516235,75.693571 c -0.05121,-0.116928 -0.07809,-0.2694 -0.06666,-0.45682 0.0042,-0.06874 0.01084,-0.134118 0.01654,-0.203088 0.01435,-0.08197 0.01047,-0.22042 0.03204,-0.344165 -0.02175,-0.07403 -0.03655,-0.157874 -0.04134,-0.251664 H 35.43763 L 51.458358,73.90815 c 0.0018,-0.09221 0.0037,-0.184267 0.0062,-0.276469 -0.0031,-0.289771 -0.0033,-0.579174 -5.17e-4,-0.868681 A 16.142714,14.7459 0 0 0 34.999931,59.697131 Z" />
    <text
       xml:space="preserve"
       style="font-size:25.6737px;font-family:'Liberation Mono';-inkscape-font-specification:'Liberation Mono, Normal';fill:#ffffff;fill-opacity:1;stroke-width:0.267434"
       x="-88.596519"
       y="36.888088"
       id="text40920"
       transform="matrix(-0.0277301,-0.94269419,1.0598723,-0.03117698,0,0)"><tspan
         sodipodi:role="line"
         id="tspan40918"
         style="fill:#ffffff;stroke-width:0.267434"
         x="-88.596519"
         y="36.888088">T</tspan></text>
    <text
       xml:space="preserve"
       style="font-size:28.6594px;font-family:'Liberation Mono';-inkscape-font-specification:'Liberation Mono, Normal';fill:#ffffff;fill-opacity:1;stroke-width:0.298535"
       x="31.529484"
       y="84.681877"
       id="text40916"
       inkscape:transform-center-x="1.0922632"
       inkscape:transform-center-y="3.1237355"
       transform="scale(1.0050829,0.99494281)"><tspan
         sodipodi:role="line"
         id="tspan40914"
         style="fill:#ffffff;stroke-width:0.298535"
         x="31.529484"
         y="84.681877">C</tspan></text>
    <text
       xml:space="preserve"
       style="font-style:normal;font-variant:normal;font-weight:normal;font-stretch:normal;font-size:17.6389px;font-family:'Liberation Mono';-inkscape-font-specification:'Liberation Mono, Normal';font-variant-ligatures:normal;font-variant-caps:normal;font-variant-numeric:normal;font-variant-east-asian:normal;fill:#ffffff;fill-opacity:1;stroke-width:0.264583"
       x="61.736412"
       y="103.28465"
       id="text41143"><tspan
         sodipodi:role="line"
         id="tspan41141"
         style="stroke-width:0.264583"></tspan></text>
    <path
       style="fill:#ff6600;fill-opacity:1;stroke-width:0.264583"
       d="m 49.947435,71.860502 c 0.03073,0.435784 0.118488,1.731518 0.160756,1.825101 0.06132,0.135787 0.246382,-0.283681 0.384521,-0.227867 0.131787,0.05325 0.01577,0.293875 0.08545,0.417758 0.03957,0.07034 0.146293,0.06944 0.213619,0.113932 0.17362,0.11474 -0.01294,0.41678 -0.04122,0.622957 -0.0039,0.02822 -0.10138,-0.0236 -0.08544,0 0.0533,0.07897 0.244086,0.09962 0.213619,0.189888 -0.04168,0.123489 -0.277897,0.07629 -0.341794,0.189889 -0.03744,0.06656 0.118703,0.114112 0.128175,0.189886 0.0082,0.06588 -0.0718,0.115991 -0.08174,0.181637 -0.0043,0.02872 0.02848,0.05064 0.04272,0.07596 0.02848,0.126593 0.120581,0.254866 0.08545,0.379775 -0.02045,0.07275 -0.153511,0.03016 -0.213627,0.07596 -0.184457,0.140539 -0.07712,0.27133 -0.172323,0.483563 -0.01693,0.03775 -0.08054,0.02006 -0.11902,0.03526 -0.08075,0.0319 -0.164801,0.05915 -0.23803,0.105793 -0.02304,0.01469 -0.01286,0.0717 -0.04019,0.07145 -0.813813,-0.0075 0.56942,-0.210148 -0.505082,-0.0737 -0.305773,0.03883 -0.667099,0.25009 -0.982678,0.151911 -0.19599,-0.06098 -0.35216,-0.237316 -0.555421,-0.265843 -0.09836,-0.01381 -0.157298,0.144571 -0.256355,0.15191 -0.03353,0.0024 -0.295968,-0.183626 -0.384524,-0.15191 -0.118497,0.04244 -0.224674,0.134308 -0.350372,0.140782 -0.06838,0.0035 -0.110585,-0.08154 -0.170905,-0.113932 -0.16102,-0.08647 -0.309346,0.01466 -0.459785,0.0013 -0.08661,-0.0077 -0.642853,-0.19512 -0.704379,-0.18138 -0.169916,0.03795 -0.3014,0.184351 -0.469974,0.227867 -0.130858,0.03378 -0.179046,-0.229232 -0.208751,-0.259773 -0.147659,-0.151818 -0.386982,-0.180306 -0.593757,-0.226095 -0.08343,-0.01847 -0.171386,0.0091 -0.256355,0 -0.147904,-0.01582 -0.591386,-0.451709 -0.696264,-0.548166 -0.195691,-0.179983 -0.272944,0.165997 -0.483179,-0.215699 -0.04275,-0.07762 0,-0.177231 0,-0.265845 0,-0.08034 0.0039,0.236955 0.08346,0.226097 0.154625,-0.02109 -0.178999,-0.264523 -0.213257,-0.416772 -0.08124,-0.36105 0.07937,-0.307414 0.166354,-0.155953 0.01402,0.02439 -0.08368,-0.03692 -0.06307,-0.05607 0.250838,-0.233019 0.246446,-0.05652 0.123351,-0.205785 -0.08468,-0.10268 -0.218771,-0.158568 -0.298624,-0.265044 -0.10359,-0.138121 0.140332,-0.28067 0.170897,-0.341799 0.207216,-0.414441 -0.029,-0.03885 -0.03663,-0.184471 -0.0011,-0.0217 0.0213,-0.03787 0.03195,-0.0568 0.01376,-0.122383 0.06164,-0.245681 0.04131,-0.367146 -0.06721,-0.401627 -0.160522,0.03509 -0.160522,-0.350652 0,-0.03632 -0.0061,0.07315 0,0.108947 0.01945,0.113483 0.121798,0.195432 0.18406,0.292283"
       id="path42037" />
    <path
       style="fill:#ff6600;fill-opacity:1;stroke-width:0.264583"
       d="m 41.672573,73.308116 c 1.048946,-0.71797 0.156713,0.578263 0.400973,0.650635 0.06934,0.02056 0.141298,-0.03798 0.21362,-0.03798 0.03117,0 -0.06724,0.01267 -0.08544,0.03798 -0.04956,0.06887 0.135779,0.104058 0.190249,0.169113 0.08301,0.09915 -0.06845,0.25114 -0.07741,0.380146 -0.0551,0.793419 -0.266157,0.775155 0.108157,1.080939 0.09124,0.07454 -0.121561,-0.231994 -0.01924,-0.228714 0.384932,0.01236 -0.183941,0.0016 0.04375,-0.268195"
       id="path42039" />
    <path
       style="fill:#ff6600;fill-opacity:1;stroke-width:0.264583"
       d="m 42.116062,72.726935 c -0.119991,1.203786 -0.05171,-0.195545 0.201211,0.722427 0.0132,0.04788 -0.09001,0.04417 -0.128175,0.07596 -0.138166,0.115091 0.106325,0.354984 0.08215,0.533175 -0.01024,0.07553 -0.152416,0.07797 -0.170902,0.151911 -0.0075,0.02989 0.126719,0.428638 0.127809,0.491085 2.3e-4,0.01302 -0.02604,0 -0.03907,0 -0.04272,0.213757 -0.138505,0.423529 -0.128175,0.641268 0.0035,0.07376 0.129114,0.08297 0.165584,0.147182 0.03725,0.06559 0.02937,0.147969 0.04405,0.221951 0.04272,0.0633 0.09031,0.123571 0.128175,0.189892 0.03691,0.06464 -0.106942,0.02963 -0.101224,0.03462 0.04445,0.03874 0.102743,0.07445 0.161652,0.07184 0.03772,-0.0016 -0.06074,-0.04604 -0.08466,-0.07525 -0.04568,-0.05578 0.107754,-0.09989 0.141462,-0.163618 0.03279,-0.062 0.141803,-0.02803 0.198816,-0.06888 0.08838,-0.06332 0.110738,-0.18941 0.185737,-0.268123 0.08749,-0.09182 0.644123,-0.327988 0.702442,-0.405924 0.07631,-0.101989 0.07569,-0.257172 0.170897,-0.341799 0.143251,-0.127334 0.367673,0.198233 0.340961,-0.605409 -7.94e-4,-0.0263 0.02064,0.04968 0.0387,0.0688 0.05057,0.05349 0.165116,0.0731 0.165042,0.146706 -6.9e-5,0.06784 -0.129207,0.04142 -0.19381,0.06212"
       id="path42041" />
    <path
       style="fill:#ff6600;fill-opacity:1;stroke-width:0.264583"
       d="m 42.781238,76.222806 c -0.521346,-0.625218 -0.758047,-0.544179 -0.525029,-1.032203 0.02238,-0.04688 -0.09814,-0.064 -0.104566,-0.115543 -0.0088,-0.07079 0.04043,-0.155242 0,-0.214019 -0.02981,-0.04334 0.0086,0.163322 -0.04272,0.15191 -0.221485,-0.04922 -0.165174,-0.422894 -0.20847,-0.524716 -0.01744,-0.04101 -0.118399,0.0055 -0.128183,-0.03798 -0.01275,-0.05668 0.09467,-0.09455 0.08545,-0.151911 -0.03716,-0.231211 -0.518255,-0.177969 -0.640871,-0.417753 -0.363479,-0.710803 0.108588,0.133974 -0.04273,-0.493713 -0.02723,-0.112961 -0.161589,-0.187999 -0.170897,-0.303821 -0.007,-0.08687 0.156043,-0.145296 0.128175,-0.22787 -0.03176,-0.09411 -0.181388,-0.08674 -0.25635,-0.15191 -0.0642,-0.05581 0.07724,-0.153887 0.09391,-0.237313 0.01984,-0.09931 -0.01455,-0.203597 0,-0.303821 0.0078,-0.05402 0.188336,0.03909 0.163478,-0.0095 -0.03478,-0.06801 -0.136562,-0.146918 -0.202192,-0.107839 -0.05693,0.0339 0.100587,0.09167 0.128173,0.15191 0.0097,0.02106 -0.0069,0.141867 -0.12668,0.04719"
       id="path42043" />
    <path
       style="fill:#ff6600;fill-opacity:1;stroke-width:0.264583"
       d="m 46.365596,72.307343 4.901763,3.069495"
       id="path42045" />
    <path
       style="fill:#ff6600;fill-opacity:1;stroke-width:0.264583"
       d="m 48.990958,78.817686 1.645547,-6.855754"
       id="path42047" />
    <path
       style="fill:#ff6600;fill-opacity:1;stroke-width:0.264583"
       d="m 50.318458,79.034972 -0.545,-7.992176"
       id="path42049" />
    <path
       id="path42051"
       style="fill:#ff6600;fill-opacity:1;stroke-width:0.264583"
       d="m 50.818604,71.875199 c -0.07294,-0.0013 -0.14878,0.04787 -0.226343,0.172083 l 0.283703,4.188375 c 0.07965,-0.07573 0.131201,-0.150888 0.274402,-0.216008 0.05528,-0.02514 0.150984,0.08341 0.179834,0.02997 0.02939,-0.05445 -0.02807,-0.166689 -0.04289,-0.206189 0.03088,-0.05779 0.158515,-0.09256 0.225826,-0.157614 -0.04904,-0.115887 -0.07473,-0.265757 -0.06356,-0.449068 0.0042,-0.06874 0.01084,-0.134118 0.01654,-0.203088 0.01448,-0.08268 0.0088,-0.223767 0.03101,-0.348299 -0.02523,-0.08741 -0.04064,-0.18812 -0.04186,-0.302824 -0.0027,-0.250351 0.0025,-0.500618 0.0093,-0.750859 -0.0033,-0.304459 -0.0033,-0.608406 0,-0.912605 -0.01163,0.0013 -0.02288,3.34e-4 -0.03204,-0.0052 -0.08967,-0.05387 -0.327779,-0.833725 -0.613916,-0.838709 z" />
    <path
       style="fill:#ff6600;fill-opacity:1;stroke-width:0.264583"
       d="m 41.395665,72.257668 c 0.115859,0.134038 0.240454,0.260993 0.347573,0.402113 0.05864,0.07725 0.141994,1.813902 0.127182,1.854484 -0.05954,0.163128 -0.250052,0.512482 -0.250052,0.672398 0,0.05716 0.11552,0.05819 0.128172,0.113933 0.0084,0.0368 -0.07439,0.03819 -0.08545,0.07428 -0.02982,0.09736 0.125966,0.344564 -0.225528,0.135768 -0.0041,-0.0024 0.230698,-0.03201 0.414914,-0.0013"
       id="path42055" />
    <path
       style="fill:#ff6600;fill-opacity:1;stroke-width:0.264583"
       d="M 45.410649,74.36164 42.082881,72.329047"
       id="path42057" />
    <path
       style="fill:#ff6600;fill-opacity:1;stroke-width:0.264583"
       d="m 41.076289,71.216334 c -1.332745,0.08263 0.47402,0.335666 0.35817,0.507166 -0.05333,0.07895 -0.166683,0.106982 -0.213628,0.189889 -0.01524,0.02691 0.06408,0.01469 0.08477,0.03767 0.06969,0.07744 0.186827,0.366319 0.168134,0.450808 -0.02315,0.104685 -0.103357,0.191934 -0.122433,0.297439 -0.07048,0.389882 0.03722,0.76173 0.03586,1.073955 -0.0011,0.253105 -0.07393,0.271732 -0.04272,0.493712 0.01979,0.140748 0.116647,0.279085 0.08545,0.417753 -0.113596,-0.02524 -0.181612,-0.09758 -0.21109,0.03347 -0.0078,0.03453 0.119216,-0.104505 0.106363,0.02723 -0.0048,0.04963 -0.104402,0.06462 -0.09697,0.113932 0.0077,0.05134 0.192701,0.133289 0.226652,0.25146 0.0337,0.117313 0.02305,0.260255 0.05996,0.376333 0.04492,0.141271 0.259754,0.151876 0.360058,0.261027 0.0567,0.0617 -0.167648,-0.06879 -0.206836,-0.142854 -0.0155,-0.02931 0.05009,0.04347 0.07487,0.0655"
       id="path42059" />
    <path
       style="fill:#ff6600;fill-opacity:1;stroke-width:0.264583"
       d="m 40.964786,71.543502 c 0.01265,0.66512 0.460333,1.119179 0.515533,1.747671 0.07713,0.878165 -0.114343,-0.223801 -0.170487,0.225303 -0.01154,0.09236 0.06679,0.174654 0.08545,0.265845 0.03411,0.166783 -0.04428,0.268531 -0.128175,0.417756 -0.01984,0.03528 0.0034,-0.103637 0.04263,-0.113686 0.03318,-0.0085 -0.01275,0.07096 0,0.102759 0.0092,0.02302 0.114265,0.179758 0.08854,0.298042 -0.01151,0.05292 0.02315,0.268743 0.0052,0.300721 -0.06305,0.11209 -0.159012,0.206875 -0.204481,0.327175 -0.02381,0.063 0.13625,-0.01434 0.202054,0 0.04579,0.01 0.07733,0.09793 0.09647,0.129196 0.168137,0.27482 0.262027,0.525833 0.390765,0.80739 0.03698,0.08087 0.141463,-0.250447 0.196409,-0.180528 0.490026,0.623554 -0.104831,0.274005 0.333832,0.180372 0.03714,-0.0079 -0.02278,0.08355 0,0.113934 0.01709,0.02278 0.05697,0 0.08545,0 0.171288,0 0.345104,0.06999 0.512696,0.03461 0.05302,-0.01119 0.03388,-0.128804 0.04455,-0.134223 0.124703,-0.06333 0.283596,-0.04071 0.404744,-0.110598 0.03239,-0.01868 -0.06067,-0.04518 -0.08383,-0.07452 -0.02328,-0.0295 -0.0049,-0.122214 0,-0.163494 0.02846,-0.239919 0.139975,-0.47207 0.128174,-0.713383 -0.0083,-0.169823 -0.11757,-0.324017 -0.128174,-0.493713 -0.01042,-0.166946 0.197178,-0.287612 0.213624,-0.454072 0.0087,-0.08819 -0.07341,-0.165931 -0.07692,-0.254476 -0.0063,-0.159872 0.100354,-0.772433 0.0033,-0.993109 -0.03836,-0.08721 -0.164258,-0.108399 -0.213619,-0.189888 -0.130733,-0.215813 -0.07551,-0.586878 -0.128175,-0.797534 -0.01275,-0.05103 -0.0034,0.186857 -0.04273,0.15191 -0.04731,-0.04205 0.02397,-0.131304 0,-0.189888 -0.04418,-0.107985 -0.363757,-0.494546 -0.387815,-0.52876"
       id="path42061" />
  </g>
</svg>
