<?xml version="1.0" encoding="UTF-8" standalone="no"?>
<!-- Uploaded to: SVG Repo, www.svgrepo.com, Generator: SVG Repo Mixer Tools -->

<svg
   width="800px"
   height="800px"
   viewBox="0 0 24 24"
   fill="none"
   version="1.1"
   id="svg955"
   sodipodi:docname="message.svg"
   inkscape:version="1.2.2 (b0a8486541, 2022-12-01)"
   xmlns:inkscape="http://www.inkscape.org/namespaces/inkscape"
   xmlns:sodipodi="http://sodipodi.sourceforge.net/DTD/sodipodi-0.dtd"
   xmlns="http://www.w3.org/2000/svg"
   xmlns:svg="http://www.w3.org/2000/svg">
  <defs
     id="defs959" />
  <sodipodi:namedview
     id="namedview957"
     pagecolor="#ffffff"
     bordercolor="#000000"
     borderopacity="0.25"
     inkscape:showpageshadow="2"
     inkscape:pageopacity="0.0"
     inkscape:pagecheckerboard="0"
     inkscape:deskcolor="#d1d1d1"
     showgrid="false"
     inkscape:zoom="0.61375"
     inkscape:cx="401.62933"
     inkscape:cy="400.81466"
     inkscape:window-width="1280"
     inkscape:window-height="662"
     inkscape:window-x="0"
     inkscape:window-y="0"
     inkscape:window-maximized="1"
     inkscape:current-layer="svg955" />
  <path
     style="fill:#ff0000;stroke-width:0.0489567"
     d="M 6.3104955,23.031536 C 6.0885951,22.964931 5.8547637,22.757564 5.7443394,22.529458 5.6447823,22.323801 5.6415759,22.251459 5.6415759,20.211087 v -2.10609 L 4.3584801,18.083491 C 3.3134627,18.065976 3.0255011,18.046081 2.8065452,17.976272 1.9827868,17.713634 1.3135377,17.153166 0.96443387,16.433582 0.61152427,15.706153 0.63139237,16.114394 0.63139237,9.590405 c 0,-5.4736572 0.00609,-5.9120499 0.086102,-6.2016609 C 1.0130466,2.3190086 1.8959203,1.4587407 2.9531848,1.2102979 c 0.2784219,-0.065425 1.3485085,-0.07466 8.6517312,-0.07466 7.303223,0 8.373309,0.00923 8.651731,0.07466 1.057264,0.2484428 1.940138,1.1087107 2.23569,2.1784462 0.08001,0.289611 0.0861,0.7280037 0.0861,6.2016609 0,6.523989 0.01987,6.115748 -0.333041,6.843177 -0.348273,0.71787 -1.004618,1.268704 -1.842112,1.545984 -0.248394,0.08224 -0.542803,0.09019 -3.871331,0.104531 l -3.602492,0.01552 -2.874086,2.398471 c -1.5807473,1.319159 -2.96207,2.43954 -3.0696056,2.489736 -0.2066814,0.09648 -0.4475388,0.112066 -0.6752757,0.04371 z m 3.5800641,-4.929231 c 1.1714094,-0.977518 2.2178184,-1.818379 2.3253544,-1.86858 0.185306,-0.08651 0.38574,-0.09135 3.837067,-0.09262 2.28527,-8.46e-4 3.707407,-0.01964 3.818377,-0.05046 0.271001,-0.07528 0.494998,-0.24955 0.629688,-0.489907 l 0.122199,-0.218068 0.0152,-5.6211805 c 0.01061,-3.9250392 -8.7e-4,-5.6957625 -0.03805,-5.8683507 -0.06534,-0.3033126 -0.289962,-0.5884665 -0.560246,-0.7112265 -0.191035,-0.086767 -0.527694,-0.090374 -8.435229,-0.090374 -7.9075351,0 -8.2441943,0.00361 -8.4352298,0.090374 -0.2702838,0.12276 -0.4949043,0.4079139 -0.5602458,0.7112265 -0.03718,0.1725882 -0.048662,1.9433115 -0.038051,5.8683507 l 0.015196,5.6211805 0.1221995,0.218068 c 0.1346901,0.240357 0.3586869,0.41463 0.6296883,0.489907 0.1023156,0.02842 0.8730115,0.04923 1.828951,0.04939 1.7967804,3e-4 1.7947317,1.7e-5 2.1037698,0.286912 0.2999655,0.278473 0.2997285,0.276975 0.3164412,2.001917 0.014018,1.446825 0.021947,1.574367 0.094198,1.515275 0.043391,-0.03549 1.0373178,-0.864311 2.2087263,-1.841829 z"
     id="path961" />
</svg>
