<?xml version="1.0" encoding="UTF-8" standalone="no"?>
<!-- Uploaded to: SVG Repo, www.svgrepo.com, Generator: SVG Repo Mixer Tools -->

<svg
   fill="#000000"
   width="800px"
   height="800px"
   viewBox="0 0 24 24"
   version="1.1"
   id="svg56"
   sodipodi:docname="notification.svg"
   inkscape:version="1.2.2 (b0a8486541, 2022-12-01)"
   xmlns:inkscape="http://www.inkscape.org/namespaces/inkscape"
   xmlns:sodipodi="http://sodipodi.sourceforge.net/DTD/sodipodi-0.dtd"
   xmlns="http://www.w3.org/2000/svg"
   xmlns:svg="http://www.w3.org/2000/svg">
  <defs
     id="defs60" />
  <sodipodi:namedview
     id="namedview58"
     pagecolor="#ffffff"
     bordercolor="#000000"
     borderopacity="0.25"
     inkscape:showpageshadow="2"
     inkscape:pageopacity="0.0"
     inkscape:pagecheckerboard="0"
     inkscape:deskcolor="#d1d1d1"
     showgrid="false"
     inkscape:zoom="0.61375"
     inkscape:cx="401.62933"
     inkscape:cy="400.81466"
     inkscape:window-width="1280"
     inkscape:window-height="662"
     inkscape:window-x="0"
     inkscape:window-y="0"
     inkscape:window-maximized="1"
     inkscape:current-layer="svg56" />
  <path
     style="fill:#ff0000;stroke-width:0.0489567"
     d="M 3.2900344,19.653995 C 3.029152,19.516895 2.8260718,19.283633 2.7528073,19.036925 2.6040546,18.536019 2.7170047,18.345095 3.7998595,17.267049 l 0.8832504,-0.879327 v -2.894723 c 0,-3.124368 0.02446,-3.5696442 0.2438079,-4.4382717 C 5.4155023,7.119907 6.7761559,5.4395116 8.5861003,4.535668 9.0867361,4.2856624 9.868639,4.0197673 10.341758,3.9386365 L 10.69533,3.8780056 V 3.2376745 c 0,-0.584578 0.01061,-0.6616247 0.121869,-0.8848912 0.212171,-0.4257704 0.644863,-0.6333854 1.07839,-0.5174345 0.308639,0.082548 0.490372,0.2310871 0.633065,0.5174345 0.111259,0.2232665 0.12187,0.3003132 0.12187,0.8848912 v 0.6403311 l 0.353572,0.060631 c 1.185767,0.2033364 2.504552,0.8862237 3.44175,1.7821917 1.255169,1.199949 1.992606,2.7016725 2.163381,4.4055247 0.03208,0.320111 0.05352,1.680814 0.05352,3.397658 v 2.863711 l 0.88325,0.879327 c 1.082855,1.078046 1.195805,1.26897 1.047052,1.769876 -0.07475,0.251709 -0.281112,0.485322 -0.54702,0.619255 -0.142076,0.07156 -0.911375,0.07861 -8.382892,0.07684 C 4.2701818,19.73122 3.4218196,19.72322 3.2900374,19.654 Z M 17.090181,17.547599 C 16.966601,17.419901 16.835453,17.26043 16.79874,17.193221 16.74488,17.094611 16.72636,16.391489 16.70286,13.551673 16.67806,10.556279 16.66206,9.9850225 16.595353,9.7146052 16.327069,8.6270131 15.886667,7.8596485 15.107264,7.1217403 14.087565,6.1563289 12.884768,5.7114751 11.452967,5.7702007 10.156566,5.8233727 9.1108108,6.2704753 8.1850051,7.1673868 7.4494306,7.8800044 7.0110232,8.6584774 6.7505056,9.7146052 c -0.066705,0.2704173 -0.08271,0.8416738 -0.1075074,3.8370678 -0.023509,2.839816 -0.042023,3.542943 -0.095885,3.641548 -0.036713,0.06721 -0.1678611,0.22668 -0.2914416,0.354378 l -0.2246913,0.232179 h 5.6419457 5.641947 z"
     id="path304" />
  <path
     style="fill:#ff0000;stroke-width:0.0489567"
     d="M 11.366075,22.754855 C 10.616203,22.566488 9.9576795,21.837953 9.8829687,21.114073 l -0.027161,-0.263162 h 1.9688703 1.968871 l -0.02716,0.263162 c -0.0614,0.594923 -0.494119,1.184158 -1.08354,1.475465 -0.297542,0.147053 -0.4196,0.179067 -0.741586,0.194506 -0.211982,0.01016 -0.470817,-0.003 -0.575187,-0.02919 z"
     id="path306" />
</svg>
